<svg xmlns="http://www.w3.org/2000/svg" viewBox="330 370 620 720" role="img" aria-label="ArugaBai">
  <g fill="#073d31">
    <g transform="translate(365.195754, 1046.580746)">
      <path d="M 228.46875 -435.078125 C 279.507812 -435.078125 317.394531 -423.617188 342.125 -400.703125 C 366.863281 -377.796875 379.234375 -341.21875 379.234375 -290.96875 L 379.234375 0 L 331.96875 0 L 319.46875 -63.265625 L 316.34375 -63.265625 C 304.375 -47.648438 291.878906 -34.566406 278.859375 -24.015625 C 265.835938 -13.472656 250.800781 -5.53125 233.75 -0.1875 C 216.695312 5.144531 195.800781 7.8125 171.0625 7.8125 C 145.03125 7.8125 121.921875 3.253906 101.734375 -5.859375 C 81.554688 -14.972656 65.675781 -28.769531 54.09375 -47.25 C 42.507812 -65.738281 36.71875 -89.175781 36.71875 -117.5625 C 36.71875 -160.257812 53.640625 -193.0625 87.484375 -215.96875 C 121.328125 -238.882812 172.878906 -251.382812 242.140625 -253.46875 L 315.953125 -256.59375 L 315.953125 -282.765625 C 315.953125 -319.734375 308.007812 -345.640625 292.125 -360.484375 C 276.25 -375.328125 253.859375 -382.75 224.953125 -382.75 C 202.566406 -382.75 181.21875 -379.492188 160.90625 -372.984375 C 140.601562 -366.472656 121.335938 -358.789062 103.109375 -349.9375 L 83.1875 -399.15625 C 102.457031 -409.039062 124.585938 -417.5 149.578125 -424.53125 C 174.578125 -431.5625 200.875 -435.078125 228.46875 -435.078125 Z M 315.171875 -210.90625 L 249.953125 -208.171875 C 196.578125 -206.085938 158.953125 -197.363281 137.078125 -182 C 115.210938 -166.632812 104.28125 -144.894531 104.28125 -116.78125 C 104.28125 -92.300781 111.695312 -74.203125 126.53125 -62.484375 C 141.375 -50.765625 161.035156 -44.90625 185.515625 -44.90625 C 223.523438 -44.90625 254.632812 -55.453125 278.84375 -76.546875 C 303.0625 -97.640625 315.171875 -129.273438 315.171875 -171.453125 Z M 315.171875 -210.90625"/>
    </g>
  </g>
  <path fill="#6fd1c2" d="M 785.84375 661.9375 C 783.910156 631.089844 770.972656 602.351562 748.921875 580.300781 C 726.871094 558.246094 698.132812 545.3125 667.28125 543.375 C 698.132812 541.441406 726.871094 528.503906 748.921875 506.453125 C 770.972656 484.402344 783.910156 455.664062 785.84375 424.8125 C 787.78125 455.664062 800.714844 484.402344 822.769531 506.453125 C 844.820312 528.503906 873.554688 541.441406 904.40625 543.375 C 873.558594 545.3125 844.820312 558.246094 822.769531 580.300781 C 800.714844 602.351562 787.78125 631.085938 785.84375 661.9375 Z M 785.84375 661.9375"/>
  <path fill="#4da6ff" d="M 785.84375 428.171875 C 787.011719 441.289062 790.1875 454.042969 795.335938 466.207031 C 801.738281 481.351562 810.910156 494.949219 822.589844 506.628906 C 834.269531 518.308594 847.871094 527.480469 863.015625 533.886719 C 875.175781 539.027344 887.925781 542.207031 901.046875 543.375 C 887.929688 544.542969 875.175781 547.71875 863.015625 552.867188 C 847.871094 559.269531 834.269531 568.441406 822.589844 580.121094 C 810.910156 591.800781 801.738281 605.402344 795.335938 620.546875 C 790.191406 632.707031 787.015625 645.457031 785.84375 658.578125 C 784.679688 645.460938 781.503906 632.707031 776.355469 620.546875 C 769.949219 605.402344 760.777344 591.800781 749.097656 580.121094 C 737.417969 568.441406 723.820312 559.269531 708.675781 552.867188 C 696.511719 547.722656 683.765625 544.546875 670.640625 543.375 C 683.757812 542.210938 696.511719 539.035156 708.675781 533.886719 C 723.820312 527.480469 737.417969 518.308594 749.097656 506.628906 C 760.777344 494.949219 769.949219 481.351562 776.355469 466.207031 C 781.503906 454.042969 784.679688 441.296875 785.84375 428.171875 M 785.84375 416.699219 C 785.84375 486.660156 729.128906 543.375 659.167969 543.375 C 729.128906 543.375 785.84375 600.089844 785.84375 670.050781 C 785.84375 600.089844 842.558594 543.375 912.519531 543.375 C 842.558594 543.375 785.84375 486.660156 785.84375 416.699219 Z M 785.84375 416.699219"/>
</svg>
